<svg width="30" height="31" viewBox="0 0 30 31" fill="none" xmlns="http://www.w3.org/2000/svg">
<path d="M29.1349 8.34756L29.1339 8.32362C29.119 8.0281 29.109 7.71545 29.103 7.36759C29.0751 5.67123 27.5737 4.26805 25.6848 4.17322C21.7465 3.97582 18.6998 2.82238 16.0967 0.543446L16.0744 0.524433C15.2254 -0.174811 13.9446 -0.174811 13.0952 0.524433L13.073 0.543446C10.4698 2.82238 7.42321 3.97582 3.48489 4.17346C1.59622 4.26805 0.094591 5.67123 0.0666282 7.36782C0.0608788 7.71333 0.0506868 8.02599 0.0357907 8.32362L0.0342227 8.37925C-0.0423484 11.9863 -0.137474 16.4754 1.53455 20.5499C2.45392 22.7906 3.84632 24.7384 5.67279 26.3394C7.75301 28.1628 10.4777 29.6103 13.771 30.6417C13.8782 30.6752 13.9895 30.7025 14.1029 30.7229C14.2629 30.7515 14.4238 30.7658 14.5848 30.7658C14.7458 30.7658 14.9071 30.7515 15.0667 30.7229C15.1801 30.7025 15.2923 30.675 15.3999 30.6412C18.6894 29.608 21.4112 28.1597 23.4896 26.3366C25.3152 24.7351 26.7076 22.7869 27.6278 20.5457C29.3061 16.4589 29.2112 11.9614 29.1349 8.34756ZM25.742 19.9211C23.9785 24.2156 20.3786 27.1649 14.7367 28.9371C14.7165 28.9432 14.6951 28.9486 14.6729 28.9526C14.6146 28.9629 14.5553 28.9629 14.4962 28.9524C14.4743 28.9484 14.4529 28.9432 14.433 28.9371C8.78502 27.1682 5.18278 24.2206 3.4206 19.9258C1.87951 16.17 1.96679 12.0492 2.04389 8.41375L2.04441 8.39357C2.06009 8.08115 2.07054 7.75394 2.07629 7.39434C2.08884 6.64111 2.75681 6.01792 3.597 5.97591C5.82567 5.86418 7.78359 5.47735 9.58262 4.79336C11.3793 4.11032 12.975 3.14748 14.4604 1.84992C14.536 1.79265 14.634 1.79241 14.7092 1.84992C16.1949 3.14748 17.7906 4.11032 19.587 4.79336C21.3861 5.47735 23.344 5.86418 25.5729 5.97591C26.4131 6.01792 27.0811 6.64111 27.0934 7.39458C27.0994 7.75605 27.1098 8.08326 27.1255 8.39357C27.2023 12.0332 27.2875 16.1573 25.742 19.9211Z" fill="#55BE14"/>
<path d="M14.6934 7.87036C9.95086 7.87036 6.09277 11.3786 6.09277 15.6906C6.09277 20.0028 9.95086 23.511 14.6934 23.511C19.4356 23.511 23.2939 20.0028 23.2939 15.6906C23.2939 11.3786 19.4356 7.87036 14.6934 7.87036ZM14.6934 21.6695C11.0675 21.6695 8.11779 18.9874 8.11779 15.6906C8.11779 12.3937 11.0675 9.71164 14.6934 9.71164C18.3189 9.71164 21.2687 12.3937 21.2687 15.6906C21.2687 18.9874 18.3189 21.6695 14.6934 21.6695Z" fill="#55BE14"/>
<path d="M17.1649 13.2625L13.1702 16.8948L12.0859 15.9089C11.6904 15.5493 11.0493 15.5493 10.6538 15.9089C10.2586 16.2685 10.2586 16.8514 10.6538 17.2108L12.4542 18.8479C12.652 19.0277 12.9111 19.1174 13.1702 19.1174C13.4292 19.1174 13.6883 19.0277 13.8861 18.8479L18.597 14.5644C18.9922 14.2048 18.9922 13.6219 18.597 13.2625C18.2015 12.9027 17.5604 12.9027 17.1649 13.2625Z" fill="#55BE14"/>
</svg>
