<svg width="22" height="13" viewBox="0 0 22 13" fill="none" xmlns="http://www.w3.org/2000/svg">
<path d="M20.816 1.36777C20.9573 0.903906 20.816 0.5625 20.1361 0.5625H17.8865C17.3136 0.5625 17.05 0.855664 16.9087 1.18223C16.9087 1.18223 15.7629 3.89492 14.1434 5.65391C13.6202 6.1623 13.3795 6.32559 13.0931 6.32559C12.9518 6.32559 12.7341 6.1623 12.7341 5.69844V1.36777C12.7341 0.811133 12.5736 0.5625 12.1 0.5625H8.56323C8.2042 0.5625 7.99031 0.822266 7.99031 1.06348C7.99031 1.59043 8.80003 1.71289 8.88406 3.19727V6.41836C8.88406 7.12344 8.7542 7.25332 8.46774 7.25332C7.70385 7.25332 5.8476 4.52949 4.7476 1.4123C4.52607 0.807422 4.30837 0.5625 3.73163 0.5625H1.48198C0.84031 0.5625 0.710449 0.855664 0.710449 1.18223C0.710449 1.76113 1.47434 4.63711 4.26635 8.43711C6.12642 11.0311 8.74656 12.4375 11.1299 12.4375C12.5622 12.4375 12.7379 12.1258 12.7379 11.5877C12.7379 9.10879 12.608 8.875 13.3261 8.875C13.6584 8.875 14.2313 9.03828 15.5681 10.2889C17.0959 11.7732 17.3479 12.4375 18.2035 12.4375H20.4532C21.0948 12.4375 21.4195 12.1258 21.2323 11.5098C20.8045 10.2146 17.9132 7.5502 17.7834 7.37207C17.4511 6.95645 17.5466 6.7709 17.7834 6.3998C17.7872 6.39609 20.5334 2.64062 20.816 1.36777V1.36777Z" fill="#55BE14"/>
</svg>
