<svg width="0" height="0" class="hidden">
  <symbol xmlns="http://www.w3.org/2000/svg" viewBox="0 0 36 29" id="iconCalendar">
    <g clip-path="url(#clip0)">
      <path d="M27.14 13.027c.777 0 1.407-.507 1.407-1.132 0-.626-.63-1.133-1.406-1.133-.777 0-1.407.507-1.407 1.133 0 .625.63 1.132 1.407 1.132z"></path>
      <path d="M30.375 2.266h-1.828V1.133C28.547.507 27.917 0 27.14 0s-1.407.507-1.407 1.133v1.133h-6.398V1.133C19.336.507 18.706 0 17.93 0c-.777 0-1.407.507-1.407 1.133v1.133h-6.328V1.133C10.195.507 9.565 0 8.79 0c-.777 0-1.406.507-1.406 1.133v1.133H5.625C2.523 2.266 0 4.298 0 6.796V24.47C0 26.967 2.523 29 5.625 29h10.758c.777 0 1.406-.507 1.406-1.133s-.63-1.133-1.406-1.133H5.625c-1.55 0-2.813-1.016-2.813-2.265V6.797c0-1.25 1.262-2.266 2.813-2.266h1.758v1.133c0 .626.63 1.133 1.406 1.133.777 0 1.406-.507 1.406-1.133V4.531h6.328v1.133c0 .626.63 1.133 1.407 1.133.776 0 1.406-.507 1.406-1.133V4.531h6.398v1.133c0 .626.63 1.133 1.407 1.133.776 0 1.406-.507 1.406-1.133V4.531h1.828c1.55 0 2.813 1.017 2.813 2.266v6.457c0 .626.63 1.133 1.406 1.133.776 0 1.406-.507 1.406-1.133V6.797c0-2.499-2.523-4.531-5.625-4.531z"></path>
      <path d="M27.492 15.293c-4.691 0-8.508 3.074-8.508 6.854 0 3.779 3.817 6.853 8.508 6.853C32.183 29 36 25.925 36 22.146s-3.817-6.853-8.508-6.853zm0 11.441c-3.14 0-5.695-2.058-5.695-4.588 0-2.53 2.555-4.587 5.695-4.587s5.695 2.058 5.695 4.587c0 2.53-2.554 4.588-5.695 4.588z"></path>
      <path d="M29.531 21.014h-.633v-1.19c0-.625-.63-1.133-1.406-1.133-.777 0-1.406.508-1.406 1.133v2.322c0 .626.63 1.133 1.406 1.133h2.04c.776 0 1.405-.507 1.405-1.133 0-.625-.63-1.132-1.406-1.132zm-8.508-7.987c.777 0 1.407-.507 1.407-1.132 0-.626-.63-1.133-1.407-1.133-.776 0-1.406.507-1.406 1.133 0 .625.63 1.132 1.406 1.132zm-6.117 4.928c.777 0 1.406-.507 1.406-1.133 0-.625-.63-1.132-1.406-1.132-.776 0-1.406.507-1.406 1.132 0 .626.63 1.133 1.406 1.133zM8.79 13.027c.776 0 1.405-.507 1.405-1.132 0-.626-.63-1.133-1.406-1.133-.777 0-1.406.507-1.406 1.133 0 .625.63 1.132 1.406 1.132zm0 4.928c.776 0 1.405-.507 1.405-1.133 0-.625-.63-1.132-1.406-1.132-.777 0-1.406.507-1.406 1.132 0 .626.63 1.133 1.406 1.133zm0 4.928c.776 0 1.405-.507 1.405-1.133s-.63-1.133-1.406-1.133c-.777 0-1.406.507-1.406 1.133s.63 1.133 1.406 1.133zm6.116 0c.777 0 1.406-.507 1.406-1.133s-.63-1.133-1.406-1.133c-.776 0-1.406.507-1.406 1.133s.63 1.133 1.406 1.133zm0-9.856c.777 0 1.406-.507 1.406-1.132 0-.626-.63-1.133-1.406-1.133-.776 0-1.406.507-1.406 1.133 0 .625.63 1.132 1.406 1.132z"></path>
    </g>
    <defs>
      <clipPath id="clip0">
        <path fill="#fff" d="M0 0h36v29H0z"></path>
      </clipPath>
    </defs>
  </symbol>
<symbol xmlns="http://www.w3.org/2000/svg" viewBox="0 0 30 31" id="iconWarranty">
    <path d="M29.1349 8.34756L29.1339 8.32362C29.119 8.0281 29.109 7.71545 29.103 7.36759C29.0751 5.67123 27.5737 4.26805 25.6848 4.17322C21.7465 3.97582 18.6998 2.82238 16.0967 0.543446L16.0744 0.524433C15.2254 -0.174811 13.9446 -0.174811 13.0952 0.524433L13.073 0.543446C10.4698 2.82238 7.42321 3.97582 3.48489 4.17346C1.59622 4.26805 0.094591 5.67123 0.0666282 7.36782C0.0608788 7.71333 0.0506868 8.02599 0.0357907 8.32362L0.0342227 8.37925C-0.0423484 11.9863 -0.137474 16.4754 1.53455 20.5499C2.45392 22.7906 3.84632 24.7384 5.67279 26.3394C7.75301 28.1628 10.4777 29.6103 13.771 30.6417C13.8782 30.6752 13.9895 30.7025 14.1029 30.7229C14.2629 30.7515 14.4238 30.7658 14.5848 30.7658C14.7458 30.7658 14.9071 30.7515 15.0667 30.7229C15.1801 30.7025 15.2923 30.675 15.3999 30.6412C18.6894 29.608 21.4112 28.1597 23.4896 26.3366C25.3152 24.7351 26.7076 22.7869 27.6278 20.5457C29.3061 16.4589 29.2112 11.9614 29.1349 8.34756ZM25.742 19.9211C23.9785 24.2156 20.3786 27.1649 14.7367 28.9371C14.7165 28.9432 14.6951 28.9486 14.6729 28.9526C14.6146 28.9629 14.5553 28.9629 14.4962 28.9524C14.4743 28.9484 14.4529 28.9432 14.433 28.9371C8.78502 27.1682 5.18278 24.2206 3.4206 19.9258C1.87951 16.17 1.96679 12.0492 2.04389 8.41375L2.04441 8.39357C2.06009 8.08115 2.07054 7.75394 2.07629 7.39434C2.08884 6.64111 2.75681 6.01792 3.597 5.97591C5.82567 5.86418 7.78359 5.47735 9.58262 4.79336C11.3793 4.11032 12.975 3.14748 14.4604 1.84992C14.536 1.79265 14.634 1.79241 14.7092 1.84992C16.1949 3.14748 17.7906 4.11032 19.587 4.79336C21.3861 5.47735 23.344 5.86418 25.5729 5.97591C26.4131 6.01792 27.0811 6.64111 27.0934 7.39458C27.0994 7.75605 27.1098 8.08326 27.1255 8.39357C27.2023 12.0332 27.2875 16.1573 25.742 19.9211Z"></path>
    <path d="M14.6934 7.87036C9.95086 7.87036 6.09277 11.3786 6.09277 15.6906C6.09277 20.0028 9.95086 23.511 14.6934 23.511C19.4356 23.511 23.2939 20.0028 23.2939 15.6906C23.2939 11.3786 19.4356 7.87036 14.6934 7.87036ZM14.6934 21.6695C11.0675 21.6695 8.11779 18.9874 8.11779 15.6906C8.11779 12.3937 11.0675 9.71164 14.6934 9.71164C18.3189 9.71164 21.2687 12.3937 21.2687 15.6906C21.2687 18.9874 18.3189 21.6695 14.6934 21.6695Z"></path>
    <path d="M17.1649 13.2625L13.1702 16.8948L12.0859 15.9089C11.6904 15.5493 11.0493 15.5493 10.6538 15.9089C10.2586 16.2685 10.2586 16.8514 10.6538 17.2108L12.4542 18.8479C12.652 19.0277 12.9111 19.1174 13.1702 19.1174C13.4292 19.1174 13.6883 19.0277 13.8861 18.8479L18.597 14.5644C18.9922 14.2048 18.9922 13.6219 18.597 13.2625C18.2015 12.9027 17.5604 12.9027 17.1649 13.2625Z"></path>
  </symbol>
  <symbol xmlns="http://www.w3.org/2000/svg" viewBox="0 0 28 29" id="iconWork">
    <path d="M19.885 12.442c0-.604-.547-1.094-1.22-1.094H6.094c-.675 0-1.221.49-1.221 1.094 0 .604.546 1.093 1.22 1.093h12.57c.674 0 1.22-.49 1.22-1.093zM6.094 15.723c-.674 0-1.22.49-1.22 1.094 0 .604.546 1.094 1.22 1.094h7.635c.674 0 1.22-.49 1.22-1.094 0-.604-.546-1.094-1.22-1.094H6.094z"></path>
    <path d="M8.963 26.223H4.882c-1.346 0-2.441-.981-2.441-2.188V4.785c0-1.206 1.095-2.187 2.44-2.187h15.004c1.346 0 2.441.981 2.441 2.188v6.726c0 .604.546 1.094 1.22 1.094.675 0 1.22-.49 1.22-1.094V4.786c0-2.413-2.189-4.375-4.88-4.375H4.881C2.19.41 0 2.373 0 4.786v19.25c0 2.412 2.19 4.374 4.882 4.374h4.081c.674 0 1.22-.49 1.22-1.093 0-.604-.546-1.094-1.22-1.094z"></path>
    <path d="M26.93 16.247c-1.428-1.28-3.75-1.28-5.177-.001l-6.7 5.991a1.08 1.08 0 00-.306.457l-1.459 4.305c-.13.382-.017.796.294 1.082.233.214.55.33.874.33.108 0 .218-.013.326-.04l4.925-1.223a1.26 1.26 0 00.537-.28l6.686-5.98c1.427-1.28 1.427-3.362 0-4.641zm-8.183 8.87l-2.479.615.726-2.14 4.52-4.043 1.727 1.547-4.494 4.02zm6.458-5.777l-.237.211-1.726-1.547.236-.21a1.324 1.324 0 011.726 0c.476.426.476 1.12 0 1.546zM18.664 6.973H6.094c-.674 0-1.22.49-1.22 1.094 0 .604.546 1.094 1.22 1.094h12.57c.674 0 1.22-.49 1.22-1.094 0-.604-.546-1.094-1.22-1.094z"></path>
  </symbol>

  <symbol xmlns="http://www.w3.org/2000/svg" viewBox="0 0 10 17" id="iconOk">
    <path d="M4.98804 8.78996C2.54199 8.78996 0.508956 6.79584 0.508956 4.43621C0.508956 1.99497 2.54199 0 4.98891 0C7.51895 0 9.468 1.99412 9.468 4.43621C9.46364 5.59481 8.99086 6.70432 8.15357 7.52087C7.31627 8.33742 6.18298 8.7942 5.00276 8.79081L4.98804 8.78996ZM4.98804 2.56448C3.95248 2.56448 3.16455 3.41874 3.16455 4.43706C3.16455 5.45367 3.95248 6.22718 4.98891 6.22718C6.06691 6.22718 6.81328 5.45367 6.81328 4.43706C6.81414 3.41789 6.06691 2.56448 4.98804 2.56448ZM6.77171 12.4127L9.30262 14.814C9.80049 15.3418 9.80049 16.1154 9.30262 16.6041C8.76406 17.132 7.9337 17.132 7.51895 16.6041L4.98891 14.162L2.54199 16.6041C2.29349 16.8481 1.961 16.9696 1.58695 16.9696C1.29689 16.9696 0.965264 16.8472 0.674335 16.6041C0.176467 16.1154 0.176467 15.3418 0.674335 14.8131L3.24594 12.4119C2.31724 12.1419 1.42636 11.7596 0.59381 11.2737C-0.0287424 10.9481 -0.15256 10.1347 0.179064 9.52352C0.593811 8.91321 1.34018 8.75086 2.00429 9.15801C2.90357 9.69676 3.9367 9.98179 4.99021 9.98179C6.04372 9.98179 7.07685 9.69676 7.97612 9.15801C8.64024 8.75086 9.4273 8.91321 9.80049 9.52352C10.1745 10.1347 10.0074 10.9473 9.42644 11.2737C8.63937 11.7624 7.72676 12.1288 6.77258 12.4136L6.77171 12.4127Z"></path>
  </symbol>
  <symbol xmlns="http://www.w3.org/2000/svg" viewBox="0 0 22 13" id="iconVK">
    <path d="M20.816 1.36777C20.9573 0.903906 20.816 0.5625 20.1361 0.5625H17.8865C17.3136 0.5625 17.05 0.855664 16.9087 1.18223C16.9087 1.18223 15.7629 3.89492 14.1434 5.65391C13.6202 6.1623 13.3795 6.32559 13.0931 6.32559C12.9518 6.32559 12.7341 6.1623 12.7341 5.69844V1.36777C12.7341 0.811133 12.5736 0.5625 12.1 0.5625H8.56323C8.2042 0.5625 7.99031 0.822266 7.99031 1.06348C7.99031 1.59043 8.80003 1.71289 8.88406 3.19727V6.41836C8.88406 7.12344 8.7542 7.25332 8.46774 7.25332C7.70385 7.25332 5.8476 4.52949 4.7476 1.4123C4.52607 0.807422 4.30837 0.5625 3.73163 0.5625H1.48198C0.84031 0.5625 0.710449 0.855664 0.710449 1.18223C0.710449 1.76113 1.47434 4.63711 4.26635 8.43711C6.12642 11.0311 8.74656 12.4375 11.1299 12.4375C12.5622 12.4375 12.7379 12.1258 12.7379 11.5877C12.7379 9.10879 12.608 8.875 13.3261 8.875C13.6584 8.875 14.2313 9.03828 15.5681 10.2889C17.0959 11.7732 17.3479 12.4375 18.2035 12.4375H20.4532C21.0948 12.4375 21.4195 12.1258 21.2323 11.5098C20.8045 10.2146 17.9132 7.5502 17.7834 7.37207C17.4511 6.95645 17.5466 6.7709 17.7834 6.3998C17.7872 6.39609 20.5334 2.64062 20.816 1.36777V1.36777Z"></path>
  </symbol>
  <symbol xmlns="http://www.w3.org/2000/svg" viewBox="0 0 20 14" id="iconYoutube">
    <path d="M8 10l5.19-3L8 4v6zm11.56-7.83c.13.47.22 1.1.28 1.9.07.8.1 1.49.1 2.09L20 7c0 2.19-.16 3.8-.44 4.83-.25.9-.83 1.48-1.73 1.73-.47.13-1.33.22-2.65.28-1.3.07-2.49.1-3.59.1L10 14c-4.19 0-6.8-.16-7.83-.44-.9-.25-1.48-.83-1.73-1.73-.13-.47-.22-1.1-.28-1.9-.07-.8-.1-1.49-.1-2.09L0 7c0-2.19.16-3.8.44-4.83.25-.9.83-1.48 1.73-1.73C2.64.31 3.5.22 4.82.16c1.3-.07 2.49-.1 3.59-.1L10 0c4.19 0 6.8.16 7.83.44.9.25 1.48.83 1.73 1.73z" 
    ></path>
  </symbol>
    <symbol xmlns="http://www.w3.org/2000/svg" viewBox="0 0 18 12" id="iconBurger">
    <path d="M17.05 5H0.95C0.42533 5 0 5.42533 0 5.95V6.05C0 6.57467 0.42533 7 0.95 7H17.05C17.5747 7 18 6.57467 18 6.05V5.95C18 5.42533 17.5747 5 17.05 5Z"></path>
    <path d="M17.05 10H0.95C0.42533 10 0 10.4253 0 10.95V11.05C0 11.5747 0.42533 12 0.95 12H17.05C17.5747 12 18 11.5747 18 11.05V10.95C18 10.4253 17.5747 10 17.05 10Z"></path>
    <path d="M17.05 0H0.95C0.42533 0 0 0.425329 0 0.95V1.05C0 1.57467 0.42533 2 0.95 2H17.05C17.5747 2 18 1.57467 18 1.05V0.95C18 0.425329 17.5747 0 17.05 0Z"></path>
  </symbol>
 <symbol  xmlns="http://www.w3.org/2000/svg" viewBox="0 0 12 13" id="iconClose">
    <path d="M12 1.37532L10.7914 0.166748L6 4.95818L1.20857 0.166748L0 1.37532L4.79143 6.16675L0 10.9582L1.20857 12.1667L6 7.37532L10.7914 12.1667L12 10.9582L7.20857 6.16675L12 1.37532Z"></path>
  </symbol>
 </svg>


  

