<svg width="60" height="85" viewBox="0 0 60 85" fill="none" xmlns="http://www.w3.org/2000/svg">
<path d="M30 40.375C27.1584 40.375 24.4332 39.2556 22.4239 37.263C20.4145 35.2704 19.2857 32.5679 19.2857 29.75C19.2857 26.9321 20.4145 24.2296 22.4239 22.237C24.4332 20.2444 27.1584 19.125 30 19.125C32.8416 19.125 35.5668 20.2444 37.5761 22.237C39.5855 24.2296 40.7143 26.9321 40.7143 29.75C40.7143 31.1453 40.4372 32.5269 39.8987 33.816C39.3603 35.1051 38.5711 36.2764 37.5761 37.263C36.5812 38.2496 35.4001 39.0323 34.1002 39.5662C32.8003 40.1002 31.407 40.375 30 40.375V40.375ZM30 0C22.0435 0 14.4129 3.13437 8.7868 8.71357C3.1607 14.2928 0 21.8598 0 29.75C0 52.0625 30 85 30 85C30 85 60 52.0625 60 29.75C60 21.8598 56.8393 14.2928 51.2132 8.71357C45.5871 3.13437 37.9565 0 30 0V0Z" fill="#55BE14"/>
</svg>
