<svg viewBox="0 0 22 30" fill="none" xmlns="http://www.w3.org/2000/svg">
<path d="M10.9531 0C5.16342 0 0.453125 4.73133 0.453125 10.5469C0.453125 12.5118 0.994984 14.4293 2.02048 16.0929L10.3554 29.5845C10.5151 29.843 10.7964 30 11.0989 30C11.1012 30 11.1035 30 11.1058 30C11.411 29.9976 11.6929 29.8357 11.8496 29.5727L19.9721 15.9504C20.941 14.322 21.4531 12.4535 21.4531 10.5469C21.4531 4.73133 16.7428 0 10.9531 0ZM18.4703 15.0479L11.0857 27.4328L3.50787 15.1668C2.65428 13.7821 2.19146 12.1846 2.19146 10.5469C2.19146 5.70059 6.12837 1.74609 10.9531 1.74609C15.7779 1.74609 19.709 5.70059 19.709 10.5469C19.709 12.136 19.2767 13.6927 18.4703 15.0479Z" fill="#55BE14"/>
<path d="M10.9531 5.27344C8.05828 5.27344 5.70313 7.6391 5.70313 10.5469C5.70313 13.4361 8.01996 15.8203 10.9531 15.8203C13.9225 15.8203 16.2031 13.4043 16.2031 10.5469C16.2031 7.6391 13.848 5.27344 10.9531 5.27344ZM10.9531 14.0742C9.01314 14.0742 7.44147 12.4903 7.44147 10.5469C7.44147 8.60836 9.02323 7.01953 10.9531 7.01953C12.883 7.01953 14.459 8.60836 14.459 10.5469C14.459 12.4619 12.9239 14.0742 10.9531 14.0742Z" fill="#55BE14"/>
</svg>
