<svg width="36" height="29" viewBox="0 0 36 29" fill="none" xmlns="http://www.w3.org/2000/svg">
<g clip-path="url(#clip0)">
<path d="M27.1406 13.0273C27.9173 13.0273 28.5469 12.5202 28.5469 11.8945C28.5469 11.2689 27.9173 10.7617 27.1406 10.7617C26.364 10.7617 25.7344 11.2689 25.7344 11.8945C25.7344 12.5202 26.364 13.0273 27.1406 13.0273Z" fill="#55BE14"/>
<path d="M30.375 2.26563L28.5469 2.26563L28.5469 1.13281C28.5469 0.50716 27.9173 1.01007e-07 27.1406 9.81969e-08C26.364 9.53868e-08 25.7344 0.50716 25.7344 1.13281L25.7344 2.26563L19.3359 2.26563L19.3359 1.13281C19.3359 0.50716 18.7064 6.76811e-08 17.9297 6.4871e-08C17.153 6.20609e-08 16.5234 0.50716 16.5234 1.13281L16.5234 2.26563L10.1953 2.26563L10.1953 1.13281C10.1953 0.50716 9.56573 3.46096e-08 8.78906 3.17995e-08C8.01239 2.89895e-08 7.38281 0.50716 7.38281 1.13281L7.38281 2.26563L5.625 2.26563C2.52338 2.26563 -2.0871e-08 4.29834 -3.30028e-08 6.79688L-1.1881e-07 24.4688C-1.30942e-07 26.9673 2.52337 29 5.625 29L16.3828 29C17.1595 29 17.7891 28.4928 17.7891 27.8672C17.7891 27.2415 17.1595 26.7344 16.3828 26.7344L5.625 26.7344C4.07419 26.7344 2.8125 25.718 2.8125 24.4688L2.8125 6.79688C2.8125 5.54761 4.07419 4.53125 5.625 4.53125L7.38281 4.53125L7.38281 5.66406C7.38281 6.28971 8.01239 6.79688 8.78906 6.79688C9.56573 6.79688 10.1953 6.28971 10.1953 5.66406L10.1953 4.53125L16.5234 4.53125L16.5234 5.66406C16.5234 6.28971 17.153 6.79688 17.9297 6.79688C18.7064 6.79688 19.3359 6.28971 19.3359 5.66406L19.3359 4.53125L25.7344 4.53125L25.7344 5.66406C25.7344 6.28971 26.364 6.79688 27.1406 6.79688C27.9173 6.79688 28.5469 6.28971 28.5469 5.66406L28.5469 4.53125L30.375 4.53125C31.9258 4.53125 33.1875 5.54761 33.1875 6.79688L33.1875 13.2539C33.1875 13.8796 33.8171 14.3867 34.5937 14.3867C35.3704 14.3867 36 13.8796 36 13.2539L36 6.79688C36 4.29834 33.4766 2.26563 30.375 2.26563Z" fill="#55BE14"/>
<path d="M27.4922 15.293C22.8009 15.293 18.9844 18.3674 18.9844 22.1465C18.9844 25.9255 22.8009 29 27.4922 29C32.1834 29 36 25.9255 36 22.1465C36 18.3674 32.1834 15.293 27.4922 15.293ZM27.4922 26.7344C24.3518 26.7344 21.7969 24.6763 21.7969 22.1465C21.7969 19.6167 24.3518 17.5586 27.4922 17.5586C30.6326 17.5586 33.1875 19.6167 33.1875 22.1465C33.1875 24.6763 30.6326 26.7344 27.4922 26.7344Z" fill="#55BE14"/>
<path d="M29.5312 21.0137L28.8984 21.0137L28.8984 19.8242C28.8984 19.1986 28.2689 18.6914 27.4922 18.6914C26.7155 18.6914 26.0859 19.1986 26.0859 19.8242L26.0859 22.1465C26.0859 22.7721 26.7155 23.2793 27.4922 23.2793L29.5312 23.2793C30.3079 23.2793 30.9375 22.7721 30.9375 22.1465C30.9375 21.5208 30.3079 21.0137 29.5312 21.0137Z" fill="#55BE14"/>
<path d="M21.0234 13.0273C21.8001 13.0273 22.4297 12.5202 22.4297 11.8945C22.4297 11.2689 21.8001 10.7617 21.0234 10.7617C20.2468 10.7617 19.6172 11.2689 19.6172 11.8945C19.6172 12.5202 20.2468 13.0273 21.0234 13.0273Z" fill="#55BE14"/>
<path d="M14.9062 17.9551C15.6829 17.9551 16.3125 17.4479 16.3125 16.8223C16.3125 16.1966 15.6829 15.6895 14.9062 15.6895C14.1296 15.6895 13.5 16.1966 13.5 16.8223C13.5 17.4479 14.1296 17.9551 14.9062 17.9551Z" fill="#55BE14"/>
<path d="M8.78906 13.0273C9.56571 13.0273 10.1953 12.5202 10.1953 11.8945C10.1953 11.2689 9.56571 10.7617 8.78906 10.7617C8.01241 10.7617 7.38281 11.2689 7.38281 11.8945C7.38281 12.5202 8.01241 13.0273 8.78906 13.0273Z" fill="#55BE14"/>
<path d="M8.78906 17.9551C9.56571 17.9551 10.1953 17.4479 10.1953 16.8223C10.1953 16.1966 9.56571 15.6895 8.78906 15.6895C8.01241 15.6895 7.38281 16.1966 7.38281 16.8223C7.38281 17.4479 8.01241 17.9551 8.78906 17.9551Z" fill="#55BE14"/>
<path d="M8.78906 22.8828C9.56571 22.8828 10.1953 22.3756 10.1953 21.75C10.1953 21.1244 9.56571 20.6172 8.78906 20.6172C8.01241 20.6172 7.38281 21.1244 7.38281 21.75C7.38281 22.3756 8.01241 22.8828 8.78906 22.8828Z" fill="#55BE14"/>
<path d="M14.9062 22.8828C15.6829 22.8828 16.3125 22.3756 16.3125 21.75C16.3125 21.1244 15.6829 20.6172 14.9062 20.6172C14.1296 20.6172 13.5 21.1244 13.5 21.75C13.5 22.3756 14.1296 22.8828 14.9062 22.8828Z" fill="#55BE14"/>
<path d="M14.9062 13.0273C15.6829 13.0273 16.3125 12.5202 16.3125 11.8945C16.3125 11.2689 15.6829 10.7617 14.9062 10.7617C14.1296 10.7617 13.5 11.2689 13.5 11.8945C13.5 12.5202 14.1296 13.0273 14.9062 13.0273Z" fill="#55BE14"/>
</g>
<defs>
<clipPath id="clip0">
<rect width="36" height="29" fill="white"/>
</clipPath>
</defs>
</svg>
