<svg width="28" height="29" viewBox="0 0 28 29" fill="none" xmlns="http://www.w3.org/2000/svg">
<path d="M19.8847 12.4416C19.8847 11.8376 19.3383 11.3479 18.6643 11.3479H6.0944C5.42039 11.3479 4.87402 11.8376 4.87402 12.4416C4.87402 13.0457 5.42039 13.5354 6.0944 13.5354H18.6643C19.3383 13.5354 19.8847 13.0457 19.8847 12.4416Z" fill="#55BE14"/>
<path d="M6.0944 15.7231C5.42039 15.7231 4.87402 16.2128 4.87402 16.8169C4.87402 17.421 5.42039 17.9106 6.0944 17.9106H13.7285C14.4026 17.9106 14.9489 17.421 14.9489 16.8169C14.9489 16.2128 14.4026 15.7231 13.7285 15.7231H6.0944Z" fill="#55BE14"/>
<path d="M8.96301 26.2229H4.88152C3.53568 26.2229 2.44076 25.2416 2.44076 24.0354V4.7856C2.44076 3.57943 3.53568 2.59812 4.88152 2.59812H19.8854C21.2312 2.59812 22.3262 3.57943 22.3262 4.7856V11.5121C22.3262 12.1162 22.8725 12.6058 23.5465 12.6058C24.2206 12.6058 24.7669 12.1162 24.7669 11.5121V4.7856C24.7669 2.37325 22.5771 0.410645 19.8854 0.410645H4.88152C2.18985 0.410645 0 2.37325 0 4.7856V24.0354C0 26.4478 2.18985 28.4104 4.88152 28.4104H8.96301C9.63703 28.4104 10.1834 27.9207 10.1834 27.3166C10.1834 26.7126 9.63703 26.2229 8.96301 26.2229Z" fill="#55BE14"/>
<path d="M26.9296 16.2467C25.5022 14.9674 23.1795 14.9673 21.753 16.2459L15.0529 22.2374C14.9106 22.3646 14.8057 22.5214 14.7472 22.6937L13.2881 26.999C13.1587 27.3807 13.2714 27.7952 13.5822 28.0807C13.8151 28.2946 14.1314 28.4107 14.4559 28.4107C14.5644 28.4107 14.674 28.3977 14.7816 28.3709L19.7073 27.1481C19.91 27.0977 20.0948 27.0013 20.2437 26.8681L26.9297 20.8872C28.3572 19.6078 28.3572 17.5262 26.9296 16.2467ZM18.7465 25.1168L16.2684 25.732L16.9936 23.5921L21.5145 19.5494L23.2407 21.0965L18.7465 25.1168ZM25.2047 19.3397L24.9683 19.5512L23.2423 18.0044L23.478 17.7936C23.9538 17.3672 24.728 17.3672 25.2039 17.7936C25.6797 18.2201 25.6797 18.9139 25.2047 19.3397Z" fill="#55BE14"/>
<path d="M18.6643 6.97314H6.0944C5.42039 6.97314 4.87402 7.46281 4.87402 8.06688C4.87402 8.67096 5.42039 9.16062 6.0944 9.16062H18.6643C19.3383 9.16062 19.8847 8.67096 19.8847 8.06688C19.8847 7.46281 19.3383 6.97314 18.6643 6.97314Z" fill="#55BE14"/>
</svg>
