<svg width="10" height="17" viewBox="0 0 10 17" fill="none" xmlns="http://www.w3.org/2000/svg">
<path d="M4.98804 8.78996C2.54199 8.78996 0.508956 6.79584 0.508956 4.43621C0.508956 1.99497 2.54199 0 4.98891 0C7.51895 0 9.468 1.99412 9.468 4.43621C9.46364 5.59481 8.99086 6.70432 8.15357 7.52087C7.31627 8.33742 6.18298 8.7942 5.00276 8.79081L4.98804 8.78996ZM4.98804 2.56448C3.95248 2.56448 3.16455 3.41874 3.16455 4.43706C3.16455 5.45367 3.95248 6.22718 4.98891 6.22718C6.06691 6.22718 6.81328 5.45367 6.81328 4.43706C6.81414 3.41789 6.06691 2.56448 4.98804 2.56448ZM6.77171 12.4127L9.30262 14.814C9.80049 15.3418 9.80049 16.1154 9.30262 16.6041C8.76406 17.132 7.9337 17.132 7.51895 16.6041L4.98891 14.162L2.54199 16.6041C2.29349 16.8481 1.961 16.9696 1.58695 16.9696C1.29689 16.9696 0.965264 16.8472 0.674335 16.6041C0.176467 16.1154 0.176467 15.3418 0.674335 14.8131L3.24594 12.4119C2.31724 12.1419 1.42636 11.7596 0.59381 11.2737C-0.0287424 10.9481 -0.15256 10.1347 0.179064 9.52352C0.593811 8.91321 1.34018 8.75086 2.00429 9.15801C2.90357 9.69676 3.9367 9.98179 4.99021 9.98179C6.04372 9.98179 7.07685 9.69676 7.97612 9.15801C8.64024 8.75086 9.4273 8.91321 9.80049 9.52352C10.1745 10.1347 10.0074 10.9473 9.42644 11.2737C8.63937 11.7624 7.72676 12.1288 6.77258 12.4136L6.77171 12.4127Z" fill="#55BE14"/>
</svg>
