<svg width="14" height="14" viewBox="0 0 14 14" fill="none" xmlns="http://www.w3.org/2000/svg">
<path d="M6.41699 0H7.58367V1.16667H6.41699V0Z" fill="#55BE14"/>
<path d="M9.91699 0H11.0837V1.16667H9.91699V0Z" fill="#55BE14"/>
<path d="M2.91699 0H4.08366V1.16667H2.91699V0Z" fill="#55BE14"/>
<path d="M13.4167 1.16675H11.0833V2.91675H9.91667V1.16675H7.58333V2.91675H6.41667V1.16675H4.08333V2.91675H2.91667V1.16675H0.583333C0.428624 1.16675 0.280251 1.22821 0.170854 1.3376C0.0614582 1.447 0 1.59537 0 1.75008L0 4.08341H14V1.75008C14 1.59537 13.9385 1.447 13.8291 1.3376C13.7197 1.22821 13.5714 1.16675 13.4167 1.16675Z" fill="#55BE14"/>
<path d="M0 13.4167C0 13.5715 0.0614582 13.7198 0.170854 13.8292C0.280251 13.9386 0.428624 14.0001 0.583333 14.0001H13.4167C13.5714 14.0001 13.7197 13.9386 13.8291 13.8292C13.9385 13.7198 14 13.5715 14 13.4167V4.66675H0V13.4167ZM11.0833 6.41675H12.25V7.58341H11.0833V6.41675ZM11.0833 8.75008H12.25V9.91675H11.0833V8.75008ZM8.75 6.41675H9.91667V7.58341H8.75V6.41675ZM8.75 8.75008H9.91667V9.91675H8.75V8.75008ZM6.41667 6.41675H7.58333V7.58341H6.41667V6.41675ZM6.41667 8.75008H7.58333V9.91675H6.41667V8.75008ZM4.08333 6.41675H5.25V7.58341H4.08333V6.41675ZM4.08333 8.75008H5.25V9.91675H4.08333V8.75008ZM4.08333 11.0834H5.25V12.2501H4.08333V11.0834ZM1.75 6.41675H2.91667V7.58341H1.75V6.41675ZM1.75 8.75008H2.91667V9.91675H1.75V8.75008ZM1.75 11.0834H2.91667V12.2501H1.75V11.0834Z" fill="#55BE14"/>
</svg>
