<svg  viewBox="0 0 22 22" fill="none" xmlns="http://www.w3.org/2000/svg">
<path d="M5.32091 20.4301C7.02069 21.453 8.96419 21.9921 10.9611 21.9921C17.0121 21.9921 22 17.0544 22 10.996C22 4.9446 17.0191 0 10.9611 0C4.92143 0 0.00788881 4.93285 0.00788881 10.996C0.00788881 13.0195 0.54718 14.9778 1.56987 16.6789L0 22L5.32091 20.4301ZM1.29662 10.996C1.29662 5.64334 5.6321 1.28856 10.9611 1.28856C16.3374 1.28856 20.7114 5.64334 20.7114 10.996C20.7114 16.3488 16.3374 20.7034 10.9611 20.7034C9.11105 20.7034 7.31325 20.1794 5.76251 19.1877L5.51477 19.0294L1.9059 20.0943L2.97055 16.4852L2.81227 16.2377C1.82063 14.6866 1.29662 12.8742 1.29662 10.996Z" fill="#55BE14"/>
<path d="M5.35519 8.9698C5.56802 10.0875 6.1998 12.2373 8.03923 14.0767C9.87866 15.9161 12.0284 16.5481 13.1463 16.7609C14.4263 17.0046 16.3047 17.0414 17.2226 16.1234L17.7344 15.6117C17.9927 15.3533 18.135 15.0098 18.135 14.6444C18.135 14.279 17.9927 13.9355 17.7344 13.6772L15.6878 11.6307C15.4293 11.3722 15.0859 11.23 14.7205 11.23C14.3551 11.23 14.0117 11.3722 13.7532 11.6307L13.2416 12.1423C12.9291 12.4548 12.3391 12.4561 12.0242 12.1461L9.98289 10.0192C9.97987 10.016 9.97685 10.0128 9.97366 10.0098C9.66063 9.69675 9.66063 9.18733 9.97366 8.8743L10.4853 8.3627C11.02 7.82794 11.02 6.96269 10.4853 6.4281L8.4387 4.38155C7.90545 3.8483 7.03769 3.8483 6.50427 4.38155L5.99267 4.89331C5.26002 5.62613 5.01581 7.18794 5.35519 8.9698ZM6.90391 5.80455C7.44102 5.27969 7.41232 5.26962 7.47157 5.26962C7.49188 5.26962 7.51219 5.27734 7.52763 5.29279C9.68413 7.46086 9.59752 7.33347 9.59752 7.39557C9.59752 7.41722 9.58963 7.43619 9.57435 7.45163L9.06259 7.96323C8.24769 8.77812 8.2445 10.0972 9.05739 10.9158L11.0999 13.0441C11.1031 13.0471 11.1061 13.0503 11.1093 13.0535C11.924 13.8682 13.3355 13.8709 14.1529 13.0535L14.6645 12.5419C14.6954 12.511 14.7457 12.511 14.7766 12.5419C16.9331 14.7098 16.8465 14.5824 16.8465 14.6445C16.8465 14.6664 16.8386 14.6852 16.8233 14.7006L16.3116 15.2122C15.9609 15.5628 14.8441 15.7726 13.3873 15.4952C12.4152 15.3099 10.5458 14.761 8.95047 13.1656C7.35508 11.5703 6.80623 9.70094 6.62109 8.72878C6.34347 7.27203 6.55328 6.15501 6.90391 5.80455Z" fill="#55BE14"/>
</svg>
