<svg width="188" height="83" viewBox="0 0 188 83" fill="none" xmlns="http://www.w3.org/2000/svg">
<path d="M117.438 0C112.011 0 107.036 1.61666 102.651 4.80519C98.4469 7.86205 95.6479 11.7555 94 14.5867C92.3521 11.7553 89.5531 7.86205 85.349 4.80519C80.9639 1.61666 75.9889 0 70.5625 0C55.4195 0 44 11.6452 44 27.0878C44 43.7711 58.2467 55.1856 79.8143 72.4656C83.4768 75.4002 87.6281 78.7264 91.943 82.2739C92.5117 82.7422 93.2422 83 94 83C94.7578 83 95.4883 82.7422 96.057 82.2741C100.372 78.726 104.523 75.4 108.188 72.4638C129.753 55.1856 144 43.7711 144 27.0878C144 11.6452 132.58 0 117.438 0Z" fill="#55BE14"/>
<path d="M11.5674 13.7656L12 14.5118L12.4326 13.7656C12.8073 13.1193 13.437 12.2436 14.371 11.5617C15.3379 10.8558 16.4287 10.5 17.625 10.5C20.9721 10.5 23.5 13.071 23.5 16.5272C23.5 18.374 22.7221 19.9539 21.2677 21.6105C19.8009 23.2813 17.6916 24.9802 15.0917 27.0716L15.4051 27.4612L15.0917 27.0716L15.0914 27.0719C14.2122 27.7791 13.2137 28.5824 12.1754 29.4395L12.1752 29.4396C12.1309 29.4762 12.069 29.5 12 29.5C11.931 29.5 11.8691 29.4763 11.8249 29.4397L11.8246 29.4394C10.7869 28.5829 9.78881 27.7799 8.91044 27.0733L8.90883 27.072L8.59542 27.4616L8.90882 27.072C6.30868 24.9804 4.19928 23.2814 2.73237 21.6106C1.2779 19.9539 0.5 18.374 0.5 16.5272C0.5 13.071 3.02788 10.5 6.375 10.5C7.57129 10.5 8.66206 10.8558 9.62895 11.5617C10.563 12.2436 11.1927 13.1192 11.5674 13.7656Z" stroke="#55BE14"/>
<path d="M170.375 10C171.677 10 172.871 10.3896 173.924 11.1579C174.933 11.8945 175.605 12.8327 176 13.5149C176.395 12.8326 177.067 11.8945 178.076 11.1579C179.129 10.3896 180.323 10 181.625 10C185.259 10 188 12.8061 188 16.5272C188 20.5473 184.581 23.2977 179.405 27.4616C178.526 28.1687 177.529 28.9702 176.494 29.825C176.357 29.9379 176.182 30 176 30C175.818 30 175.643 29.9379 175.506 29.8251C174.471 28.9701 173.474 28.1687 172.595 27.4612C167.419 23.2977 164 20.5473 164 16.5272C164 12.8061 166.741 10 170.375 10Z" fill="#DDF2D0"/>
<path d="M32.8125 63C32.1613 63 31.5643 63.1948 31.0381 63.5789C30.5336 63.9472 30.1977 64.4163 30 64.7574C29.8023 64.4163 29.4664 63.9472 28.9619 63.5789C28.4357 63.1948 27.8387 63 27.1875 63C25.3703 63 24 64.403 24 66.2636C24 68.2736 25.7096 69.6489 28.2977 71.7308C28.7372 72.0844 29.2354 72.4851 29.7532 72.9125C29.8214 72.9689 29.9091 73 30 73C30.0909 73 30.1786 72.9689 30.2468 72.9125C30.7647 72.4851 31.2628 72.0843 31.7026 71.7306C34.2904 69.6489 36 68.2736 36 66.2636C36 64.403 34.6297 63 32.8125 63Z" fill="#DDF2D0"/>
<path d="M158.433 65.0082L158 65.7544L157.567 65.0082C157.39 64.7029 157.097 64.2964 156.667 63.9828L156.962 63.5789L156.667 63.9828C156.226 63.6611 155.733 63.5 155.188 63.5C153.658 63.5 152.5 64.668 152.5 66.2636C152.5 67.1054 152.851 67.839 153.554 68.6403C154.27 69.4558 155.305 70.2905 156.611 71.341L156.611 71.341L156.612 71.3416C157.031 71.6788 157.505 72.0606 158 72.468C158.494 72.0608 158.969 71.6791 159.388 71.3421L159.389 71.3412L159.389 71.3412C160.695 70.2906 161.73 69.4559 162.446 68.6404C163.149 67.839 163.5 67.1054 163.5 66.2636C163.5 64.668 162.342 63.5 160.812 63.5C160.267 63.5 159.774 63.6611 159.333 63.9828L159.038 63.5789L159.333 63.9828C158.903 64.2964 158.61 64.7029 158.433 65.0082Z" stroke="#55BE14"/>
</svg>
