<svg width="170" height="264" viewBox="0 0 170 264" fill="none" xmlns="http://www.w3.org/2000/svg">
<path fill-rule="evenodd" clip-rule="evenodd" d="M98.2301 0.679379C81.5651 20.0484 80.4893 51.5066 95.3803 72.3844V79.6454C95.3803 81.8897 95.1915 84.1057 94.8424 86.2935L73.4213 79.8811C73.7625 72.0629 71.4847 64.3542 66.9486 57.975C62.4125 51.5959 55.877 46.9105 48.3765 44.6604L15.3483 34.759C9.87509 53.336 20.3497 72.8559 38.9399 78.5138L71.968 88.4152L71.9869 88.3775L92.5965 94.5541C91.5618 97.2001 90.2491 99.7289 88.6803 102.098C83.3958 110.019 80.7535 119.355 80.7535 128.785V131.378L59.4928 125.013C59.8454 117.207 57.5794 109.507 53.0541 103.135C48.5289 96.7629 42.0038 92.0834 34.5141 89.8391L1.48594 79.9377C-4.08167 98.5146 6.48734 118.035 24.9831 123.692L58.0113 133.594L58.0301 133.509L80.7441 140.308V150.964C61.7691 151.792 43.4888 158.337 28.3048 169.739H14.1499C11.5076 169.739 9.43157 171.813 9.43157 174.454V202.743C9.43157 205.384 11.5076 207.458 14.1499 207.458H18.9437L26.3042 251.647C27.531 258.814 33.6648 264 40.8366 264H129.069C136.241 264 142.469 258.814 143.601 251.647L151.037 207.458H155.69C158.332 207.458 160.408 205.384 160.408 202.743V174.454C160.408 171.813 158.332 169.739 155.69 169.739H141.544C126.396 158.365 108.165 151.825 89.237 150.973V147.069L104.232 142.581L104.251 142.637L137.279 132.736C155.775 127.078 166.344 107.558 160.776 88.981L127.748 98.8824C120.259 101.139 113.737 105.825 109.212 112.2C104.686 118.575 102.416 126.276 102.76 134.084L89.237 138.139V128.775C89.237 120.854 91.5018 113.122 95.8427 106.521C98.7274 102.157 100.885 97.3543 102.231 92.3003L111.96 89.3865L111.989 89.4525L145.017 79.5511C163.513 73.8931 174.082 54.3732 168.514 35.7963L135.486 45.6977C127.985 47.9309 121.449 52.61 116.92 58.9886C112.391 65.3672 110.13 73.0777 110.498 80.8901L103.76 82.9081C103.833 81.8221 103.871 80.7339 103.873 79.6454V69.5743C117.179 49.3188 116.348 19.8787 101.042 0.783107C100.268 -0.244752 98.9945 -0.244752 98.2301 0.688808V0.679379ZM28.5124 207.458H141.469L134.297 250.081L134.278 250.176C134.072 251.408 133.434 252.527 132.478 253.332C131.521 254.137 130.31 254.576 129.06 254.57H40.8272C39.5643 254.559 38.3461 254.101 37.389 253.278C36.432 252.454 35.7979 251.318 35.5993 250.072L28.5124 207.458ZM150.981 197.953V179.169H18.8682V198.028H18.9342V197.953H150.981Z" fill="#DDF2D0" fill-opacity="0.7"/>
</svg>
